<svg width="24" height="24" viewBox="0 0 24 24" fill="none" xmlns="http://www.w3.org/2000/svg">
<path fill-rule="evenodd" clip-rule="evenodd" d="M13.5955 4.1762C9.29693 4.1762 5.80232 7.67801 5.80232 12.01C5.80232 12.731 5.21777 13.3156 4.49669 13.3156C3.77562 13.3156 3.19107 12.731 3.19107 12.01C3.19107 6.24682 7.84384 1.56494 13.5955 1.56494C19.3472 1.56494 24 6.24682 24 12.01C24 17.7731 19.3472 22.455 13.5955 22.455C12.8745 22.455 12.2899 21.8704 12.2899 21.1494C12.2899 20.4283 12.8745 19.8437 13.5955 19.8437C17.8941 19.8437 21.3887 16.3419 21.3887 12.01C21.3887 7.67801 17.8941 4.1762 13.5955 4.1762Z" fill="#202020"/>
<path fill-rule="evenodd" clip-rule="evenodd" d="M0.586098 7.66216C1.18756 7.26575 1.99708 7.43301 2.39422 8.03575L4.50683 11.2421L7.84332 9.35737C8.47051 9.00307 9.26682 9.22528 9.62193 9.8537C9.97704 10.4821 9.75646 11.2788 9.12927 11.6331L5.26253 13.8174C4.36691 14.3233 3.23158 14.0479 2.66449 13.1873L0.216119 9.47128C-0.181012 8.86854 -0.0153661 8.05857 0.586098 7.66216Z" fill="#202020"/>
</svg>
